<svg xmlns="http://www.w3.org/2000/svg" xmlns:xlink="http://www.w3.org/1999/xlink" width="1366" zoomAndPan="magnify" viewBox="0 0 1024.5 287.999989" height="384" preserveAspectRatio="xMidYMid meet" version="1.0"><defs><clipPath id="8bee00a98e"><path d="M 0 0.0703125 L 1024 0.0703125 L 1024 287.929688 L 0 287.929688 Z M 0 0.0703125 " clip-rule="nonzero"/></clipPath><clipPath id="fcd71ec796"><path d="M 0.125 0.140625 L 511.625 0.140625 L 511.625 287.859375 L 0.125 287.859375 Z M 0.125 0.140625 " clip-rule="nonzero"/></clipPath><clipPath id="de6a2ca22b"><path d="M 28.882812 191.679688 L 96.257812 191.679688 L 96.257812 259.089844 L 28.882812 259.089844 Z M 28.882812 191.679688 " clip-rule="nonzero"/></clipPath><clipPath id="07c0cda787"><path d="M 62.570312 191.679688 C 43.964844 191.679688 28.882812 206.769531 28.882812 225.382812 C 28.882812 244 43.964844 259.089844 62.570312 259.089844 C 81.175781 259.089844 96.257812 244 96.257812 225.382812 C 96.257812 206.769531 81.175781 191.679688 62.570312 191.679688 Z M 62.570312 191.679688 " clip-rule="nonzero"/></clipPath><clipPath id="0e38cb4465"><path d="M 62.570312 191.679688 C 43.964844 191.679688 28.882812 206.769531 28.882812 225.382812 C 28.882812 244 43.964844 259.089844 62.570312 259.089844 C 81.175781 259.089844 96.257812 244 96.257812 225.382812 C 96.257812 206.769531 81.175781 191.679688 62.570312 191.679688 Z M 62.570312 191.679688 " clip-rule="nonzero"/></clipPath><clipPath id="4cb4d81d89"><path d="M 78.59375 166.433594 L 113.925781 166.433594 L 113.925781 201.78125 L 78.59375 201.78125 Z M 78.59375 166.433594 " clip-rule="nonzero"/></clipPath><clipPath id="503231ed8e"><path d="M 96.257812 166.433594 C 86.5 166.433594 78.59375 174.347656 78.59375 184.109375 C 78.59375 193.871094 86.5 201.78125 96.257812 201.78125 C 106.015625 201.78125 113.925781 193.871094 113.925781 184.109375 C 113.925781 174.347656 106.015625 166.433594 96.257812 166.433594 Z M 96.257812 166.433594 " clip-rule="nonzero"/></clipPath><clipPath id="c837086a30"><path d="M 96.257812 166.433594 C 86.5 166.433594 78.59375 174.347656 78.59375 184.109375 C 78.59375 193.871094 86.5 201.78125 96.257812 201.78125 C 106.015625 201.78125 113.925781 193.871094 113.925781 184.109375 C 113.925781 174.347656 106.015625 166.433594 96.257812 166.433594 Z M 96.257812 166.433594 " clip-rule="nonzero"/></clipPath><clipPath id="634de7c06f"><path d="M 0.125 0.140625 L 86.394531 0.140625 L 86.394531 86.453125 L 0.125 86.453125 Z M 0.125 0.140625 " clip-rule="nonzero"/></clipPath><clipPath id="3907d8a313"><path d="M 86.394531 0.136719 C 86.394531 22.871094 77.191406 45.097656 61.125 61.171875 C 45.058594 77.246094 22.84375 86.453125 0.121094 86.453125 L 0.121094 42.417969 C 11.25 42.417969 22.132812 37.90625 30.003906 30.035156 C 37.875 22.160156 42.378906 11.273438 42.378906 0.136719 Z M 86.394531 0.136719 " clip-rule="nonzero"/></clipPath><clipPath id="94a7011c48"><path d="M 86.394531 0.136719 C 86.394531 22.871094 77.191406 45.097656 61.125 61.171875 C 45.058594 77.246094 22.84375 86.453125 0.121094 86.453125 L 0.121094 42.417969 C 11.25 42.417969 22.132812 37.90625 30.003906 30.035156 C 37.875 22.160156 42.378906 11.273438 42.378906 0.136719 Z M 86.394531 0.136719 " clip-rule="nonzero"/></clipPath><clipPath id="0a1a79a95e"><path d="M 512.125 0.140625 L 1023.625 0.140625 L 1023.625 287.859375 L 512.125 287.859375 Z M 512.125 0.140625 " clip-rule="nonzero"/></clipPath><clipPath id="ef5d8ad1dc"><path d="M 899.554688 28.910156 L 985.832031 28.910156 L 985.832031 115.230469 L 899.554688 115.230469 Z M 899.554688 28.910156 " clip-rule="nonzero"/></clipPath><clipPath id="6e2c6986a9"><path d="M 942.691406 28.910156 L 985.832031 72.070312 L 942.691406 115.230469 L 899.554688 72.070312 Z M 942.691406 28.910156 " clip-rule="nonzero"/></clipPath><clipPath id="7d0be6899a"><path d="M 942.691406 28.910156 L 985.832031 72.070312 L 942.691406 115.230469 L 899.554688 72.070312 Z M 942.691406 28.910156 " clip-rule="nonzero"/></clipPath><clipPath id="136481dd43"><path d="M 950.710938 95.902344 L 994.898438 95.902344 L 994.898438 134.558594 L 950.710938 134.558594 Z M 950.710938 95.902344 " clip-rule="nonzero"/></clipPath><clipPath id="53c0e16b98"><path d="M 972.789062 134.558594 L 994.867188 95.902344 L 950.710938 95.902344 Z M 972.789062 134.558594 " clip-rule="nonzero"/></clipPath><clipPath id="b791c1836c"><path d="M 972.789062 134.558594 L 994.867188 95.902344 L 950.710938 95.902344 Z M 972.789062 134.558594 " clip-rule="nonzero"/></clipPath><clipPath id="5c1ca7b5f9"><path d="M 936.878906 134.558594 L 948.503906 134.558594 L 948.503906 144.25 L 936.878906 144.25 Z M 927.1875 144.25 L 958.195312 144.25 L 958.195312 155.886719 L 927.1875 155.886719 Z M 936.878906 155.886719 L 948.503906 155.886719 L 948.503906 165.578125 L 936.878906 165.578125 Z M 936.878906 155.886719 " clip-rule="nonzero"/></clipPath></defs><g clip-path="url(#8bee00a98e)"><path fill="#ffffff" d="M 0 0.0703125 L 1024 0.0703125 L 1024 287.929688 L 0 287.929688 Z M 0 0.0703125 " fill-opacity="1" fill-rule="nonzero"/><path fill="#ffffff" d="M 0 0.0703125 L 1024 0.0703125 L 1024 287.929688 L 0 287.929688 Z M 0 0.0703125 " fill-opacity="1" fill-rule="nonzero"/></g><g clip-path="url(#fcd71ec796)"><path fill="#ffffff" d="M 0.125 0.140625 L 511.625 0.140625 L 511.625 287.859375 L 0.125 287.859375 Z M 0.125 0.140625 " fill-opacity="1" fill-rule="nonzero"/><path fill="#ffffff" d="M 0.125 0.140625 L 511.625 0.140625 L 511.625 287.859375 L 0.125 287.859375 Z M 0.125 0.140625 " fill-opacity="1" fill-rule="nonzero"/></g><g clip-path="url(#de6a2ca22b)"><g clip-path="url(#07c0cda787)"><g clip-path="url(#0e38cb4465)"><path fill="#ff3131" d="M 28.882812 191.679688 L 96.257812 191.679688 L 96.257812 259.089844 L 28.882812 259.089844 Z M 28.882812 191.679688 " fill-opacity="1" fill-rule="nonzero"/></g></g></g><g clip-path="url(#4cb4d81d89)"><g clip-path="url(#503231ed8e)"><g clip-path="url(#c837086a30)"><path fill="#ff5757" d="M 78.59375 166.433594 L 113.925781 166.433594 L 113.925781 201.78125 L 78.59375 201.78125 Z M 78.59375 166.433594 " fill-opacity="1" fill-rule="nonzero"/></g></g></g><g clip-path="url(#634de7c06f)"><g clip-path="url(#3907d8a313)"><g clip-path="url(#94a7011c48)"><path fill="#ff3131" d="M 0.121094 0.136719 L 86.394531 0.136719 L 86.394531 86.453125 L 0.121094 86.453125 Z M 0.121094 0.136719 " fill-opacity="1" fill-rule="nonzero"/></g></g></g><g clip-path="url(#0a1a79a95e)"><path fill="#ffffff" d="M 512.125 0.140625 L 1023.625 0.140625 L 1023.625 287.859375 L 512.125 287.859375 Z M 512.125 0.140625 " fill-opacity="1" fill-rule="nonzero"/><path fill="#ffffff" d="M 512.125 0.140625 L 1023.625 0.140625 L 1023.625 287.859375 L 512.125 287.859375 Z M 512.125 0.140625 " fill-opacity="1" fill-rule="nonzero"/></g><g clip-path="url(#ef5d8ad1dc)"><g clip-path="url(#6e2c6986a9)"><g clip-path="url(#7d0be6899a)"><path fill="#5e17eb" d="M 899.554688 28.910156 L 985.832031 28.910156 L 985.832031 115.230469 L 899.554688 115.230469 Z M 899.554688 28.910156 " fill-opacity="1" fill-rule="nonzero"/></g></g></g><g clip-path="url(#136481dd43)"><g clip-path="url(#53c0e16b98)"><g clip-path="url(#b791c1836c)"><path fill="#5170ff" d="M 950.710938 95.902344 L 994.933594 95.902344 L 994.933594 134.558594 L 950.710938 134.558594 Z M 950.710938 95.902344 " fill-opacity="1" fill-rule="nonzero"/></g></g></g><g clip-path="url(#5c1ca7b5f9)"><path fill="#0cc0df" d="M 927.1875 134.558594 L 958.195312 134.558594 L 958.195312 165.578125 L 927.1875 165.578125 Z M 927.1875 134.558594 " fill-opacity="1" fill-rule="nonzero"/></g></svg>