<svg xmlns="http://www.w3.org/2000/svg" xmlns:xlink="http://www.w3.org/1999/xlink" width="1366" zoomAndPan="magnify" viewBox="0 0 1024.5 287.999989" height="384" preserveAspectRatio="xMidYMid meet" version="1.0"><defs><clipPath id="eba19daf6b"><path d="M 0 0.0703125 L 1024 0.0703125 L 1024 287.929688 L 0 287.929688 Z M 0 0.0703125 " clip-rule="nonzero"/></clipPath><clipPath id="61ce06ee0c"><path d="M 0 0.0703125 L 1024 0.0703125 L 1024 287.929688 L 0 287.929688 Z M 0 0.0703125 " clip-rule="nonzero"/></clipPath><clipPath id="a61fa71a00"><rect x="0" width="1024" y="0" height="288"/></clipPath><clipPath id="193fca216a"><path d="M 0 132.84375 L 155.082031 132.84375 L 155.082031 287.929688 L 0 287.929688 Z M 0 132.84375 " clip-rule="nonzero"/></clipPath><clipPath id="ccd821e52d"><path d="M -0.00390625 132.84375 C 40.839844 132.84375 80.777344 149.386719 109.65625 178.265625 C 138.539062 207.148438 155.082031 247.085938 155.082031 287.929688 L 75.960938 287.929688 C 75.960938 267.921875 67.859375 248.359375 53.710938 234.214844 C 39.5625 220.066406 20 211.964844 -0.00390625 211.964844 Z M -0.00390625 132.84375 " clip-rule="nonzero"/></clipPath><clipPath id="5559c83d88"><path d="M 0 0.84375 L 155.082031 0.84375 L 155.082031 155.929688 L 0 155.929688 Z M 0 0.84375 " clip-rule="nonzero"/></clipPath><clipPath id="3da13477b2"><path d="M -0.00390625 0.84375 C 40.839844 0.84375 80.777344 17.386719 109.65625 46.265625 C 138.539062 75.148438 155.082031 115.085938 155.082031 155.929688 L 75.960938 155.929688 C 75.960938 135.921875 67.859375 116.359375 53.710938 102.214844 C 39.5625 88.066406 20 79.964844 -0.00390625 79.964844 Z M -0.00390625 0.84375 " clip-rule="nonzero"/></clipPath><clipPath id="8e0c299147"><rect x="0" width="156" y="0" height="156"/></clipPath><clipPath id="cc779029df"><path d="M 77.542969 117.753906 L 164.222656 117.753906 L 164.222656 193.488281 L 77.542969 193.488281 Z M 77.542969 117.753906 " clip-rule="nonzero"/></clipPath><clipPath id="20b5b3117b"><path d="M 120.820312 117.753906 L 164.097656 193.488281 L 77.542969 193.488281 Z M 120.820312 117.753906 " clip-rule="nonzero"/></clipPath><clipPath id="7f8f037eff"><path d="M 0.542969 0.753906 L 87.222656 0.753906 L 87.222656 76.488281 L 0.542969 76.488281 Z M 0.542969 0.753906 " clip-rule="nonzero"/></clipPath><clipPath id="3bbc170955"><path d="M 43.820312 0.753906 L 87.097656 76.488281 L 0.542969 76.488281 Z M 43.820312 0.753906 " clip-rule="nonzero"/></clipPath><clipPath id="303ed1e14a"><rect x="0" width="88" y="0" height="77"/></clipPath><clipPath id="841924e465"><path d="M 872.125 129.304688 L 1024 129.304688 L 1024 287.929688 L 872.125 287.929688 Z M 872.125 129.304688 " clip-rule="nonzero"/></clipPath><clipPath id="67a3b5e68a"><path d="M 1024 287.929688 L 872.125 287.929688 L 872.125 129.304688 Z M 1024 287.929688 " clip-rule="nonzero"/></clipPath><clipPath id="c08d84ba6e"><path d="M 0.125 0.304688 L 152 0.304688 L 152 158.929688 L 0.125 158.929688 Z M 0.125 0.304688 " clip-rule="nonzero"/></clipPath><clipPath id="24ab085f35"><path d="M 152 158.929688 L 0.125 158.929688 L 0.125 0.304688 Z M 152 158.929688 " clip-rule="nonzero"/></clipPath><clipPath id="e31fa76a51"><rect x="0" width="152" y="0" height="159"/></clipPath><clipPath id="92ea5fa523"><path d="M 922.117188 28.855469 L 1023.996094 28.855469 L 1023.996094 126.171875 L 922.117188 126.171875 Z M 922.117188 28.855469 " clip-rule="nonzero"/></clipPath><clipPath id="6014b7fcc5"><path d="M 922.351562 126.171875 L 922.351562 28.855469 L 1023.996094 28.855469 Z M 922.351562 126.171875 " clip-rule="nonzero"/></clipPath><clipPath id="9525249894"><path d="M 0.351562 0.855469 L 101.996094 0.855469 L 101.996094 98.171875 L 0.351562 98.171875 Z M 0.351562 0.855469 " clip-rule="nonzero"/></clipPath><clipPath id="3a667cf5b7"><path d="M 0.351562 98.171875 L 0.351562 0.855469 L 101.996094 0.855469 Z M 0.351562 98.171875 " clip-rule="nonzero"/></clipPath><clipPath id="5ed6be70e3"><rect x="0" width="102" y="0" height="99"/></clipPath><clipPath id="1327209ec9"><path d="M 846.71875 184.109375 L 897.65625 184.109375 L 897.65625 232.769531 L 846.71875 232.769531 Z M 846.71875 184.109375 " clip-rule="nonzero"/></clipPath><clipPath id="2fa00ff498"><path d="M 897.539062 184.109375 L 897.539062 232.769531 L 846.71875 232.769531 Z M 897.539062 184.109375 " clip-rule="nonzero"/></clipPath><clipPath id="bcf8fca15c"><path d="M 0.71875 0.109375 L 51.640625 0.109375 L 51.640625 48.769531 L 0.71875 48.769531 Z M 0.71875 0.109375 " clip-rule="nonzero"/></clipPath><clipPath id="a412e4e33a"><path d="M 51.539062 0.109375 L 51.539062 48.769531 L 0.71875 48.769531 Z M 51.539062 0.109375 " clip-rule="nonzero"/></clipPath><clipPath id="6ca83bcc78"><rect x="0" width="52" y="0" height="49"/></clipPath></defs><g clip-path="url(#eba19daf6b)"><path fill="#ffffff" d="M 0 0.0703125 L 1024 0.0703125 L 1024 287.929688 L 0 287.929688 Z M 0 0.0703125 " fill-opacity="1" fill-rule="nonzero"/><path fill="#ffffff" d="M 0 0.0703125 L 1024 0.0703125 L 1024 287.929688 L 0 287.929688 Z M 0 0.0703125 " fill-opacity="1" fill-rule="nonzero"/><g transform="matrix(1, 0, 0, 1, 0, -0.000000000000048142)"><g clip-path="url(#a61fa71a00)"><g clip-path="url(#61ce06ee0c)"><path fill="#000000" d="M 0 0.0703125 L 1024.375 0.0703125 L 1024.375 287.929688 L 0 287.929688 Z M 0 0.0703125 " fill-opacity="1" fill-rule="nonzero"/></g></g></g></g><g clip-path="url(#193fca216a)"><g clip-path="url(#ccd821e52d)"><g transform="matrix(1, 0, 0, 1, 0, 132)"><g clip-path="url(#8e0c299147)"><g clip-path="url(#5559c83d88)"><g clip-path="url(#3da13477b2)"><path fill="#ffde59" d="M 155.082031 0.84375 L 155.082031 155.929688 L -0.00390625 155.929688 L -0.00390625 0.84375 Z M 155.082031 0.84375 " fill-opacity="1" fill-rule="nonzero"/></g></g></g></g></g></g><g clip-path="url(#cc779029df)"><g clip-path="url(#20b5b3117b)"><g transform="matrix(1, 0, 0, 1, 77, 117)"><g clip-path="url(#303ed1e14a)"><g clip-path="url(#7f8f037eff)"><g clip-path="url(#3bbc170955)"><path fill="#ff914d" d="M 0.542969 0.753906 L 87.222656 0.753906 L 87.222656 76.488281 L 0.542969 76.488281 Z M 0.542969 0.753906 " fill-opacity="1" fill-rule="nonzero"/></g></g></g></g></g></g><g clip-path="url(#841924e465)"><g clip-path="url(#67a3b5e68a)"><g transform="matrix(1, 0, 0, 1, 872, 129)"><g clip-path="url(#e31fa76a51)"><g clip-path="url(#c08d84ba6e)"><g clip-path="url(#24ab085f35)"><path fill="#5e17eb" d="M 0.125 0.304688 L 152 0.304688 L 152 158.707031 L 0.125 158.707031 Z M 0.125 0.304688 " fill-opacity="1" fill-rule="nonzero"/></g></g></g></g></g></g><g clip-path="url(#92ea5fa523)"><g clip-path="url(#6014b7fcc5)"><g transform="matrix(1, 0, 0, 1, 922, 28)"><g clip-path="url(#5ed6be70e3)"><g clip-path="url(#9525249894)"><g clip-path="url(#3a667cf5b7)"><path fill="#cb6ce6" d="M 101.996094 0.855469 L 101.996094 98.171875 L 0.496094 98.171875 L 0.496094 0.855469 Z M 101.996094 0.855469 " fill-opacity="1" fill-rule="nonzero"/></g></g></g></g></g></g><g clip-path="url(#1327209ec9)"><g clip-path="url(#2fa00ff498)"><g transform="matrix(1, 0, 0, 1, 846, 184)"><g clip-path="url(#6ca83bcc78)"><g clip-path="url(#bcf8fca15c)"><g clip-path="url(#a412e4e33a)"><path fill="#cb6ce6" d="M 0.71875 48.769531 L 0.71875 0.109375 L 51.46875 0.109375 L 51.46875 48.769531 Z M 0.71875 48.769531 " fill-opacity="1" fill-rule="nonzero"/></g></g></g></g></g></g></svg>