<svg xmlns="http://www.w3.org/2000/svg" xmlns:xlink="http://www.w3.org/1999/xlink" width="1366" zoomAndPan="magnify" viewBox="0 0 1024.5 576" height="768" preserveAspectRatio="xMidYMid meet" version="1.0"><defs><clipPath id="4514060a29"><path d="M 0 243.585938 L 1024 243.585938 L 1024 575.859375 L 0 575.859375 Z M 0 243.585938 " clip-rule="nonzero"/></clipPath><clipPath id="49989a652e"><path d="M 0 0.585938 L 1024 0.585938 L 1024 332.859375 L 0 332.859375 Z M 0 0.585938 " clip-rule="nonzero"/></clipPath><clipPath id="ef33c0877c"><rect x="0" width="1024" y="0" height="333"/></clipPath><clipPath id="a05bd80cf5"><path d="M 0 489.917969 L 224.574219 489.917969 L 224.574219 538.84375 L 0 538.84375 Z M 0 489.917969 " clip-rule="nonzero"/></clipPath><clipPath id="ba7574a789"><path d="M 168.378906 489.917969 L 0 489.917969 L 0 538.84375 L 168.378906 538.84375 L 224.503906 514.382812 Z M 168.378906 489.917969 " clip-rule="nonzero"/></clipPath><clipPath id="e34ed54bf9"><path d="M 0 0.917969 L 224.53125 0.917969 L 224.53125 49.84375 L 0 49.84375 Z M 0 0.917969 " clip-rule="nonzero"/></clipPath><clipPath id="ee621f30cd"><path d="M 168.378906 0.917969 L 0 0.917969 L 0 49.84375 L 168.378906 49.84375 L 224.503906 25.382812 Z M 168.378906 0.917969 " clip-rule="nonzero"/></clipPath><clipPath id="f5b6dfd02f"><rect x="0" width="225" y="0" height="50"/></clipPath><clipPath id="e48e27c7c9"><path d="M 0 454.207031 L 108.511719 454.207031 L 108.511719 477.851562 L 0 477.851562 Z M 0 454.207031 " clip-rule="nonzero"/></clipPath><clipPath id="dd78fa6eac"><path d="M 81.359375 454.207031 L 0 454.207031 L 0 477.851562 L 81.359375 477.851562 L 108.480469 466.027344 Z M 81.359375 454.207031 " clip-rule="nonzero"/></clipPath><clipPath id="9da7d18103"><path d="M 0 0.207031 L 108.511719 0.207031 L 108.511719 23.851562 L 0 23.851562 Z M 0 0.207031 " clip-rule="nonzero"/></clipPath><clipPath id="a2e6557421"><path d="M 81.359375 0.207031 L 0 0.207031 L 0 23.851562 L 81.359375 23.851562 L 108.480469 12.027344 Z M 81.359375 0.207031 " clip-rule="nonzero"/></clipPath><clipPath id="2ca9a4801e"><rect x="0" width="109" y="0" height="24"/></clipPath><clipPath id="bd1642279d"><path d="M 851.285156 262 L 1024 262 L 1024 314 L 851.285156 314 Z M 851.285156 262 " clip-rule="nonzero"/></clipPath><clipPath id="ad169646ef"><path d="M 938.292969 272.03125 C 967.296875 263.558594 995.648438 255.085938 1024 271.378906 L 1024 302.339844 C 994.671875 286.695312 965.34375 295.496094 936.992188 303.96875 C 907.988281 312.441406 879.636719 320.914062 851.285156 304.621094 L 851.285156 273.660156 C 880.613281 289.304688 909.941406 280.503906 938.292969 272.03125 Z M 938.292969 272.03125 " clip-rule="nonzero"/></clipPath><clipPath id="2f9dd6deb4"><path d="M 0.285156 0 L 173 0 L 173 52 L 0.285156 52 Z M 0.285156 0 " clip-rule="nonzero"/></clipPath><clipPath id="4731e7927a"><path d="M 87.292969 10.03125 C 116.296875 1.558594 144.648438 -6.914062 173 9.378906 L 173 40.339844 C 143.671875 24.695312 114.34375 33.496094 85.992188 41.96875 C 56.988281 50.441406 28.636719 58.914062 0.285156 42.621094 L 0.285156 11.660156 C 29.613281 27.304688 58.941406 18.503906 87.292969 10.03125 Z M 87.292969 10.03125 " clip-rule="nonzero"/></clipPath><clipPath id="effadf49d8"><rect x="0" width="173" y="0" height="52"/></clipPath><clipPath id="23f3bec39a"><path d="M 888.296875 440.15625 L 1024 440.15625 L 1024 575.859375 L 888.296875 575.859375 Z M 888.296875 440.15625 " clip-rule="nonzero"/></clipPath><clipPath id="86bc6b0e05"><path d="M 888.296875 575.859375 C 888.296875 540.121094 902.769531 505.171875 928.042969 479.902344 C 953.3125 454.628906 988.261719 440.15625 1024 440.15625 L 1024 509.386719 C 1006.492188 509.386719 989.375 516.476562 976.996094 528.855469 C 964.617188 541.234375 957.527344 558.351562 957.527344 575.859375 Z M 888.296875 575.859375 " clip-rule="nonzero"/></clipPath><clipPath id="3a952e3103"><path d="M 0.296875 0.15625 L 136 0.15625 L 136 135.859375 L 0.296875 135.859375 Z M 0.296875 0.15625 " clip-rule="nonzero"/></clipPath><clipPath id="3f2bd88a9f"><path d="M 0.296875 135.859375 C 0.296875 100.121094 14.769531 65.171875 40.042969 39.902344 C 65.3125 14.628906 100.261719 0.15625 136 0.15625 L 136 69.386719 C 118.492188 69.386719 101.375 76.476562 88.996094 88.855469 C 76.617188 101.234375 69.527344 118.351562 69.527344 135.859375 Z M 0.296875 135.859375 " clip-rule="nonzero"/></clipPath><clipPath id="19c6f58bf4"><rect x="0" width="136" y="0" height="136"/></clipPath><clipPath id="38f192dea2"><path d="M 62.90625 243.585938 L 133.390625 243.585938 L 133.390625 314.070312 L 62.90625 314.070312 Z M 62.90625 243.585938 " clip-rule="nonzero"/></clipPath><clipPath id="a68b0e6c75"><path d="M 98.148438 243.585938 L 133.390625 278.828125 L 98.148438 314.070312 L 62.90625 278.828125 Z M 98.148438 243.585938 " clip-rule="nonzero"/></clipPath><clipPath id="2165b4a7da"><path d="M 0.90625 0.585938 L 71.390625 0.585938 L 71.390625 71.070312 L 0.90625 71.070312 Z M 0.90625 0.585938 " clip-rule="nonzero"/></clipPath><clipPath id="a56248084d"><path d="M 36.148438 0.585938 L 71.390625 35.828125 L 36.148438 71.070312 L 0.90625 35.828125 Z M 36.148438 0.585938 " clip-rule="nonzero"/></clipPath><clipPath id="367623d0ac"><rect x="0" width="72" y="0" height="72"/></clipPath><clipPath id="d26d8e7a13"><path d="M 18.742188 269.90625 L 62.90625 269.90625 L 62.90625 314.070312 L 18.742188 314.070312 Z M 18.742188 269.90625 " clip-rule="nonzero"/></clipPath><clipPath id="a105c091c1"><path d="M 40.824219 269.90625 L 62.90625 291.988281 L 40.824219 314.070312 L 18.742188 291.988281 Z M 40.824219 269.90625 " clip-rule="nonzero"/></clipPath><clipPath id="a7ea73ed79"><path d="M 0.742188 0.90625 L 44.90625 0.90625 L 44.90625 45.070312 L 0.742188 45.070312 Z M 0.742188 0.90625 " clip-rule="nonzero"/></clipPath><clipPath id="bdead5576f"><path d="M 22.824219 0.90625 L 44.90625 22.988281 L 22.824219 45.070312 L 0.742188 22.988281 Z M 22.824219 0.90625 " clip-rule="nonzero"/></clipPath><clipPath id="236f5adf0a"><rect x="0" width="45" y="0" height="46"/></clipPath></defs><g clip-path="url(#4514060a29)"><g transform="matrix(1, 0, 0, 1, 0, 243)"><g clip-path="url(#ef33c0877c)"><g clip-path="url(#49989a652e)"><path fill="#000000" d="M 0 0.585938 L 1024.074219 0.585938 L 1024.074219 332.859375 L 0 332.859375 Z M 0 0.585938 " fill-opacity="1" fill-rule="nonzero"/></g></g></g></g><g clip-path="url(#a05bd80cf5)"><g clip-path="url(#ba7574a789)"><g transform="matrix(1, 0, 0, 1, 0, 489)"><g clip-path="url(#f5b6dfd02f)"><g clip-path="url(#e34ed54bf9)"><g clip-path="url(#ee621f30cd)"><path fill="#38b6ff" d="M 0 0.917969 L 224.574219 0.917969 L 224.574219 49.84375 L 0 49.84375 Z M 0 0.917969 " fill-opacity="1" fill-rule="nonzero"/></g></g></g></g></g></g><g clip-path="url(#e48e27c7c9)"><g clip-path="url(#dd78fa6eac)"><g transform="matrix(1, 0, 0, 1, 0, 454)"><g clip-path="url(#2ca9a4801e)"><g clip-path="url(#9da7d18103)"><g clip-path="url(#a2e6557421)"><path fill="#0097b2" d="M 0 0.207031 L 108.511719 0.207031 L 108.511719 23.851562 L 0 23.851562 Z M 0 0.207031 " fill-opacity="1" fill-rule="nonzero"/></g></g></g></g></g></g><g clip-path="url(#bd1642279d)"><g clip-path="url(#ad169646ef)"><g transform="matrix(1, 0, 0, 1, 851, 262)"><g clip-path="url(#effadf49d8)"><g clip-path="url(#2f9dd6deb4)"><g clip-path="url(#4731e7927a)"><path fill="#ffde59" d="M 0.285156 -0.0703125 L 173 -0.0703125 L 173 52.070312 L 0.285156 52.070312 Z M 0.285156 -0.0703125 " fill-opacity="1" fill-rule="nonzero"/></g></g></g></g></g></g><g clip-path="url(#23f3bec39a)"><g clip-path="url(#86bc6b0e05)"><g transform="matrix(1, 0, 0, 1, 888, 440)"><g clip-path="url(#19c6f58bf4)"><g clip-path="url(#3a952e3103)"><g clip-path="url(#3f2bd88a9f)"><path fill="#7ed957" d="M 0.296875 0.15625 L 136 0.15625 L 136 135.859375 L 0.296875 135.859375 Z M 0.296875 0.15625 " fill-opacity="1" fill-rule="nonzero"/></g></g></g></g></g></g><g clip-path="url(#38f192dea2)"><g clip-path="url(#a68b0e6c75)"><g transform="matrix(1, 0, 0, 1, 62, 243)"><g clip-path="url(#367623d0ac)"><g clip-path="url(#2165b4a7da)"><g clip-path="url(#a56248084d)"><path fill="#ff5757" d="M 0.90625 0.585938 L 71.390625 0.585938 L 71.390625 71.070312 L 0.90625 71.070312 Z M 0.90625 0.585938 " fill-opacity="1" fill-rule="nonzero"/></g></g></g></g></g></g><g clip-path="url(#d26d8e7a13)"><g clip-path="url(#a105c091c1)"><g transform="matrix(1, 0, 0, 1, 18, 269)"><g clip-path="url(#236f5adf0a)"><g clip-path="url(#a7ea73ed79)"><g clip-path="url(#bdead5576f)"><path fill="#ff3131" d="M 0.742188 0.90625 L 44.90625 0.90625 L 44.90625 45.070312 L 0.742188 45.070312 Z M 0.742188 0.90625 " fill-opacity="1" fill-rule="nonzero"/></g></g></g></g></g></g></svg>