<svg xmlns="http://www.w3.org/2000/svg" xmlns:xlink="http://www.w3.org/1999/xlink" width="1366" zoomAndPan="magnify" viewBox="0 0 1024.5 576" height="768" preserveAspectRatio="xMidYMid meet" version="1.0"><defs><clipPath id="d2311cf7c2"><path d="M 57.570312 57.710938 L 177.648438 57.710938 L 177.648438 177.789062 L 57.570312 177.789062 Z M 57.570312 57.710938 " clip-rule="nonzero"/></clipPath><clipPath id="924cba92b4"><path d="M 84.558594 57.710938 L 150.664062 57.710938 C 165.566406 57.710938 177.648438 69.792969 177.648438 84.699219 L 177.648438 150.804688 C 177.648438 165.707031 165.566406 177.789062 150.664062 177.789062 L 84.558594 177.789062 C 69.65625 177.789062 57.570312 165.707031 57.570312 150.804688 L 57.570312 84.699219 C 57.570312 69.792969 69.65625 57.710938 84.558594 57.710938 Z M 84.558594 57.710938 " clip-rule="nonzero"/></clipPath><clipPath id="10366298d4"><path d="M 0.570312 0.710938 L 120.648438 0.710938 L 120.648438 120.789062 L 0.570312 120.789062 Z M 0.570312 0.710938 " clip-rule="nonzero"/></clipPath><clipPath id="b37d431aed"><path d="M 27.558594 0.710938 L 93.664062 0.710938 C 108.566406 0.710938 120.648438 12.792969 120.648438 27.699219 L 120.648438 93.804688 C 120.648438 108.707031 108.566406 120.789062 93.664062 120.789062 L 27.558594 120.789062 C 12.65625 120.789062 0.570312 108.707031 0.570312 93.804688 L 0.570312 27.699219 C 0.570312 12.792969 12.65625 0.710938 27.558594 0.710938 Z M 27.558594 0.710938 " clip-rule="nonzero"/></clipPath><clipPath id="0e31991439"><rect x="0" width="121" y="0" height="121"/></clipPath><clipPath id="73a0704160"><path d="M 57.570312 189.753906 L 139.816406 189.753906 L 139.816406 272 L 57.570312 272 Z M 57.570312 189.753906 " clip-rule="nonzero"/></clipPath><clipPath id="5f47b4acfd"><path d="M 84.558594 189.753906 L 112.828125 189.753906 C 127.734375 189.753906 139.816406 201.835938 139.816406 216.742188 L 139.816406 245.011719 C 139.816406 259.917969 127.734375 272 112.828125 272 L 84.558594 272 C 69.65625 272 57.570312 259.917969 57.570312 245.011719 L 57.570312 216.742188 C 57.570312 201.835938 69.65625 189.753906 84.558594 189.753906 Z M 84.558594 189.753906 " clip-rule="nonzero"/></clipPath><clipPath id="d409b12484"><path d="M 0.570312 0.753906 L 82.816406 0.753906 L 82.816406 83 L 0.570312 83 Z M 0.570312 0.753906 " clip-rule="nonzero"/></clipPath><clipPath id="b3cb472179"><path d="M 27.558594 0.753906 L 55.828125 0.753906 C 70.734375 0.753906 82.816406 12.835938 82.816406 27.742188 L 82.816406 56.011719 C 82.816406 70.917969 70.734375 83 55.828125 83 L 27.558594 83 C 12.65625 83 0.570312 70.917969 0.570312 56.011719 L 0.570312 27.742188 C 0.570312 12.835938 12.65625 0.753906 27.558594 0.753906 Z M 27.558594 0.753906 " clip-rule="nonzero"/></clipPath><clipPath id="a1531fbb18"><rect x="0" width="83" y="0" height="83"/></clipPath><clipPath id="8147a8511f"><path d="M 194.625 57.710938 L 314.101562 57.710938 L 314.101562 178 L 194.625 178 Z M 194.625 57.710938 " clip-rule="nonzero"/></clipPath><clipPath id="224409ccd1"><path d="M 314.101562 117.75 L 194.625 177.789062 L 194.625 57.710938 Z M 314.101562 117.75 " clip-rule="nonzero"/></clipPath><clipPath id="942ef82cb4"><path d="M 0.625 0.710938 L 120.101562 0.710938 L 120.101562 120.894531 L 0.625 120.894531 Z M 0.625 0.710938 " clip-rule="nonzero"/></clipPath><clipPath id="e06de25235"><path d="M 120.101562 60.75 L 0.625 120.789062 L 0.625 0.710938 Z M 120.101562 60.75 " clip-rule="nonzero"/></clipPath><clipPath id="155b148a5c"><rect x="0" width="121" y="0" height="121"/></clipPath><clipPath id="41b53902e2"><path d="M 878.097656 142.089844 L 1024 142.089844 L 1024 434 L 878.097656 434 Z M 878.097656 142.089844 " clip-rule="nonzero"/></clipPath><clipPath id="34d0238e40"><path d="M 1024.003906 142.089844 C 944.53125 142.089844 878.097656 208.523438 878.097656 287.996094 C 878.097656 367.46875 944.53125 433.898438 1024.003906 433.898438 L 1024.003906 352.882812 C 988.660156 352.882812 959.113281 323.339844 959.113281 287.996094 C 959.113281 252.652344 988.660156 223.105469 1024.003906 223.105469 Z M 1024.003906 142.089844 " clip-rule="nonzero"/></clipPath><clipPath id="c6a6a42f39"><path d="M 0.0976562 0.0898438 L 146 0.0898438 L 146 292 L 0.0976562 292 Z M 0.0976562 0.0898438 " clip-rule="nonzero"/></clipPath><clipPath id="2bda47404d"><path d="M 146.003906 0.0898438 C 66.53125 0.0898438 0.0976562 66.523438 0.0976562 145.996094 C 0.0976562 225.46875 66.53125 291.898438 146.003906 291.898438 L 146.003906 210.882812 C 110.660156 210.882812 81.113281 181.339844 81.113281 145.996094 C 81.113281 110.652344 110.660156 81.105469 146.003906 81.105469 Z M 146.003906 0.0898438 " clip-rule="nonzero"/></clipPath><clipPath id="a3d4d3a778"><rect x="0" width="146" y="0" height="292"/></clipPath><clipPath id="a592e61957"><path d="M 79.417969 448.378906 L 105.632812 448.378906 L 105.632812 470.226562 L 79.417969 470.226562 Z M 57.570312 470.226562 L 127.480469 470.226562 L 127.480469 496.441406 L 57.570312 496.441406 Z M 79.417969 496.441406 L 105.632812 496.441406 L 105.632812 518.289062 L 79.417969 518.289062 Z M 79.417969 496.441406 " clip-rule="nonzero"/></clipPath><clipPath id="dee133187a"><path d="M 22.417969 0.378906 L 48.632812 0.378906 L 48.632812 22.226562 L 22.417969 22.226562 Z M 0.570312 22.226562 L 70.480469 22.226562 L 70.480469 48.441406 L 0.570312 48.441406 Z M 22.417969 48.441406 L 48.632812 48.441406 L 48.632812 70.289062 L 22.417969 70.289062 Z M 22.417969 48.441406 " clip-rule="nonzero"/></clipPath><clipPath id="62c87ec55a"><rect x="0" width="71" y="0" height="71"/></clipPath><clipPath id="650f4907d6"><path d="M 151.074219 479.632812 L 165.570312 479.632812 L 165.570312 491.714844 L 151.074219 491.714844 Z M 138.996094 491.714844 L 177.648438 491.714844 L 177.648438 506.207031 L 138.996094 506.207031 Z M 151.074219 506.207031 L 165.570312 506.207031 L 165.570312 518.289062 L 151.074219 518.289062 Z M 151.074219 506.207031 " clip-rule="nonzero"/></clipPath><clipPath id="773ffa66b1"><path d="M 13.074219 0.632812 L 27.570312 0.632812 L 27.570312 12.714844 L 13.074219 12.714844 Z M 0.996094 12.714844 L 39.648438 12.714844 L 39.648438 27.207031 L 0.996094 27.207031 Z M 13.074219 27.207031 L 27.570312 27.207031 L 27.570312 39.289062 L 13.074219 39.289062 Z M 13.074219 27.207031 " clip-rule="nonzero"/></clipPath><clipPath id="1073c22613"><rect x="0" width="40" y="0" height="40"/></clipPath><clipPath id="4facc94adc"><path d="M 783.660156 57.710938 L 917.726562 57.710938 L 917.726562 191.773438 L 783.660156 191.773438 Z M 783.660156 57.710938 " clip-rule="nonzero"/></clipPath><clipPath id="9c6de61704"><path d="M 850.695312 57.710938 L 917.726562 124.742188 L 850.695312 191.773438 L 783.660156 124.742188 Z M 850.695312 57.710938 " clip-rule="nonzero"/></clipPath><clipPath id="484107f4a4"><path d="M 0.660156 0.710938 L 134.726562 0.710938 L 134.726562 134.773438 L 0.660156 134.773438 Z M 0.660156 0.710938 " clip-rule="nonzero"/></clipPath><clipPath id="6f52e86799"><path d="M 67.695312 0.710938 L 134.726562 67.742188 L 67.695312 134.773438 L 0.660156 67.742188 Z M 67.695312 0.710938 " clip-rule="nonzero"/></clipPath><clipPath id="4b8799a4ca"><rect x="0" width="135" y="0" height="135"/></clipPath><clipPath id="395cd42a76"><path d="M 803.625 222.835938 L 897.761719 222.835938 L 897.761719 321.390625 L 803.625 321.390625 Z M 803.625 222.835938 " clip-rule="nonzero"/></clipPath><clipPath id="eaf2cd182b"><path d="M 897.761719 321.160156 L 803.625 321.160156 L 803.625 222.835938 Z M 897.761719 321.160156 " clip-rule="nonzero"/></clipPath><clipPath id="0270ea8795"><path d="M 0.625 0.835938 L 94.761719 0.835938 L 94.761719 99.34375 L 0.625 99.34375 Z M 0.625 0.835938 " clip-rule="nonzero"/></clipPath><clipPath id="aca86101d7"><path d="M 94.761719 99.160156 L 0.625 99.160156 L 0.625 0.835938 Z M 94.761719 99.160156 " clip-rule="nonzero"/></clipPath><clipPath id="82a7d9f372"><rect x="0" width="95" y="0" height="100"/></clipPath><clipPath id="52ff2ea5f7"><path d="M 0 310.621094 L 88.046875 310.621094 L 88.046875 483.625 L 0 483.625 Z M 0 310.621094 " clip-rule="nonzero"/></clipPath><clipPath id="7c1e76c11e"><path d="M -0.00390625 483.335938 C 47.953125 483.335938 88.046875 444.015625 88.046875 396.976562 C 88.046875 349.941406 47.953125 310.621094 -0.00390625 310.621094 Z M -0.00390625 483.335938 " clip-rule="nonzero"/></clipPath><clipPath id="97c0931f87"><path d="M 0 0.621094 L 88.046875 0.621094 L 88.046875 173.503906 L 0 173.503906 Z M 0 0.621094 " clip-rule="nonzero"/></clipPath><clipPath id="e4cdbf5654"><path d="M -0.00390625 173.335938 C 47.953125 173.335938 88.046875 134.015625 88.046875 86.976562 C 88.046875 39.941406 47.953125 0.621094 -0.00390625 0.621094 Z M -0.00390625 173.335938 " clip-rule="nonzero"/></clipPath><clipPath id="47b2a246ed"><rect x="0" width="89" y="0" height="174"/></clipPath></defs><g clip-path="url(#d2311cf7c2)"><g clip-path="url(#924cba92b4)"><g transform="matrix(1, 0, 0, 1, 57, 57)"><g clip-path="url(#0e31991439)"><g clip-path="url(#10366298d4)"><g clip-path="url(#b37d431aed)"><path fill="#ff3131" d="M 0.570312 0.710938 L 120.648438 0.710938 L 120.648438 120.789062 L 0.570312 120.789062 Z M 0.570312 0.710938 " fill-opacity="1" fill-rule="nonzero"/></g></g></g></g></g></g><g clip-path="url(#73a0704160)"><g clip-path="url(#5f47b4acfd)"><g transform="matrix(1, 0, 0, 1, 57, 189)"><g clip-path="url(#a1531fbb18)"><g clip-path="url(#d409b12484)"><g clip-path="url(#b3cb472179)"><path fill="#cb6ce6" d="M 0.570312 0.753906 L 82.816406 0.753906 L 82.816406 83 L 0.570312 83 Z M 0.570312 0.753906 " fill-opacity="1" fill-rule="nonzero"/></g></g></g></g></g></g><g clip-path="url(#8147a8511f)"><g clip-path="url(#224409ccd1)"><g transform="matrix(1, 0, 0, 1, 194, 57)"><g clip-path="url(#155b148a5c)"><g clip-path="url(#942ef82cb4)"><g clip-path="url(#e06de25235)"><path fill="#ff66c4" d="M 120.101562 0.710938 L 120.101562 120.660156 L 0.625 120.660156 L 0.625 0.710938 Z M 120.101562 0.710938 " fill-opacity="1" fill-rule="nonzero"/></g></g></g></g></g></g><g clip-path="url(#41b53902e2)"><g clip-path="url(#34d0238e40)"><g transform="matrix(1, 0, 0, 1, 878, 142)"><g clip-path="url(#a3d4d3a778)"><g clip-path="url(#c6a6a42f39)"><g clip-path="url(#2bda47404d)"><path fill="#7ed957" d="M 0.0976562 291.898438 L 0.0976562 0.0898438 L 146.003906 0.0898438 L 146.003906 291.898438 Z M 0.0976562 291.898438 " fill-opacity="1" fill-rule="nonzero"/></g></g></g></g></g></g><g clip-path="url(#a592e61957)"><g transform="matrix(1, 0, 0, 1, 57, 448)"><g clip-path="url(#62c87ec55a)"><g clip-path="url(#dee133187a)"><path fill="#1800ad" d="M 0.570312 0.378906 L 70.480469 0.378906 L 70.480469 70.289062 L 0.570312 70.289062 Z M 0.570312 0.378906 " fill-opacity="1" fill-rule="nonzero"/></g></g></g></g><g clip-path="url(#650f4907d6)"><g transform="matrix(1, 0, 0, 1, 138, 479)"><g clip-path="url(#1073c22613)"><g clip-path="url(#773ffa66b1)"><path fill="#38b6ff" d="M 0.996094 0.632812 L 39.648438 0.632812 L 39.648438 39.289062 L 0.996094 39.289062 Z M 0.996094 0.632812 " fill-opacity="1" fill-rule="nonzero"/></g></g></g></g><g clip-path="url(#4facc94adc)"><g clip-path="url(#9c6de61704)"><g transform="matrix(1, 0, 0, 1, 783, 57)"><g clip-path="url(#4b8799a4ca)"><g clip-path="url(#484107f4a4)"><g clip-path="url(#6f52e86799)"><path fill="#00bf63" d="M 0.664062 0.710938 L 134.726562 0.710938 L 134.726562 134.773438 L 0.664062 134.773438 Z M 0.664062 0.710938 " fill-opacity="1" fill-rule="nonzero"/></g></g></g></g></g></g><g clip-path="url(#395cd42a76)"><g clip-path="url(#eaf2cd182b)"><g transform="matrix(1, 0, 0, 1, 803, 222)"><g clip-path="url(#82a7d9f372)"><g clip-path="url(#0270ea8795)"><g clip-path="url(#aca86101d7)"><path fill="#c1ff72" d="M 0.625 0.835938 L 94.761719 0.835938 L 94.761719 99.019531 L 0.625 99.019531 Z M 0.625 0.835938 " fill-opacity="1" fill-rule="nonzero"/></g></g></g></g></g></g><g clip-path="url(#52ff2ea5f7)"><g clip-path="url(#7c1e76c11e)"><g transform="matrix(1, 0, 0, 1, 0, 310)"><g clip-path="url(#47b2a246ed)"><g clip-path="url(#97c0931f87)"><g clip-path="url(#e4cdbf5654)"><path fill="#0097b2" d="M 88.046875 0.621094 L 88.046875 173.28125 L -0.00390625 173.28125 L -0.00390625 0.621094 Z M 88.046875 0.621094 " fill-opacity="1" fill-rule="nonzero"/></g></g></g></g></g></g></svg>