<svg xmlns="http://www.w3.org/2000/svg" xmlns:xlink="http://www.w3.org/1999/xlink" width="2000" zoomAndPan="magnify" viewBox="0 0 1500 1499.999933" height="2000" preserveAspectRatio="xMidYMid meet" version="1.0"><defs><clipPath id="832713dd09"><path d="M 174.9375 174.9375 L 1325.0625 174.9375 L 1325.0625 1325.0625 L 174.9375 1325.0625 Z M 174.9375 174.9375 " clip-rule="nonzero"/></clipPath><clipPath id="fe176b94ec"><path d="M 750 174.9375 C 432.402344 174.9375 174.9375 432.402344 174.9375 750 C 174.9375 1067.597656 432.402344 1325.0625 750 1325.0625 C 1067.597656 1325.0625 1325.0625 1067.597656 1325.0625 750 C 1325.0625 432.402344 1067.597656 174.9375 750 174.9375 Z M 750 174.9375 " clip-rule="nonzero"/></clipPath><clipPath id="b9884c3847"><path d="M 0.9375 0.9375 L 1151.0625 0.9375 L 1151.0625 1151.0625 L 0.9375 1151.0625 Z M 0.9375 0.9375 " clip-rule="nonzero"/></clipPath><clipPath id="0fb6452f57"><path d="M 576 0.9375 C 258.402344 0.9375 0.9375 258.402344 0.9375 576 C 0.9375 893.597656 258.402344 1151.0625 576 1151.0625 C 893.597656 1151.0625 1151.0625 893.597656 1151.0625 576 C 1151.0625 258.402344 893.597656 0.9375 576 0.9375 Z M 576 0.9375 " clip-rule="nonzero"/></clipPath><clipPath id="27e8965dde"><rect x="0" width="1152" y="0" height="1152"/></clipPath><clipPath id="da11644947"><path d="M 361.699219 321.796875 L 460.714844 321.796875 L 460.714844 771.796875 L 361.699219 771.796875 Z M 361.699219 321.796875 " clip-rule="nonzero"/></clipPath><clipPath id="2a0ec8e515"><path d="M 0.699219 0.796875 L 99.714844 0.796875 L 99.714844 450.796875 L 0.699219 450.796875 Z M 0.699219 0.796875 " clip-rule="nonzero"/></clipPath><clipPath id="509fa3c367"><rect x="0" width="100" y="0" height="451"/></clipPath><clipPath id="f403397f08"><path d="M 361 325 L 665 325 L 665 768 L 361 768 Z M 361 325 " clip-rule="nonzero"/></clipPath><clipPath id="44ef6e9538"><path d="M 361.699219 373.210938 L 448.550781 325.664062 L 664.644531 720.382812 L 577.796875 767.929688 Z M 361.699219 373.210938 " clip-rule="nonzero"/></clipPath><clipPath id="309bb2fca5"><path d="M 0.679688 0.441406 L 303.800781 0.441406 L 303.800781 443 L 0.679688 443 Z M 0.679688 0.441406 " clip-rule="nonzero"/></clipPath><clipPath id="f615b48247"><path d="M 0.699219 48.210938 L 87.550781 0.664062 L 303.644531 395.382812 L 216.796875 442.929688 Z M 0.699219 48.210938 " clip-rule="nonzero"/></clipPath><clipPath id="cd71f8b7e7"><rect x="0" width="304" y="0" height="443"/></clipPath><clipPath id="8b02c5cd4e"><path d="M 817.585938 325.664062 L 1162.292969 325.664062 L 1162.292969 670.371094 L 817.585938 670.371094 Z M 817.585938 325.664062 " clip-rule="nonzero"/></clipPath><clipPath id="d1b26ca28c"><path d="M 817.585938 325.664062 C 908.367188 325.664062 997.136719 362.433594 1061.328125 426.625 C 1125.523438 490.820312 1162.292969 579.585938 1162.292969 670.371094 L 986.433594 670.371094 C 986.433594 625.902344 968.425781 582.417969 936.980469 550.976562 C 905.535156 519.53125 862.054688 501.519531 817.585938 501.519531 Z M 817.585938 325.664062 " clip-rule="nonzero"/></clipPath><clipPath id="e05c985327"><path d="M 0.585938 0.664062 L 345.292969 0.664062 L 345.292969 345.371094 L 0.585938 345.371094 Z M 0.585938 0.664062 " clip-rule="nonzero"/></clipPath><clipPath id="f5734ecc7a"><path d="M 0.585938 0.664062 C 91.367188 0.664062 180.136719 37.433594 244.328125 101.625 C 308.523438 165.820312 345.292969 254.585938 345.292969 345.371094 L 169.433594 345.371094 C 169.433594 300.902344 151.425781 257.417969 119.980469 225.976562 C 88.535156 194.53125 45.054688 176.519531 0.585938 176.519531 Z M 0.585938 0.664062 " clip-rule="nonzero"/></clipPath><clipPath id="2deef65b92"><rect x="0" width="346" y="0" height="346"/></clipPath><clipPath id="1fba4ea75e"><path d="M 817.589844 1019.695312 L 1051.457031 1019.695312 L 1051.457031 1253.5625 L 817.589844 1253.5625 Z M 817.589844 1019.695312 " clip-rule="nonzero"/></clipPath><clipPath id="f50f46396f"><path d="M 1051.457031 1019.695312 C 1051.457031 1081.289062 1026.507812 1141.515625 982.957031 1185.066406 C 939.40625 1228.617188 879.179688 1253.5625 817.589844 1253.5625 L 817.589844 1134.253906 C 847.757812 1134.253906 877.257812 1122.03125 898.59375 1100.699219 C 919.925781 1079.367188 932.144531 1049.867188 932.144531 1019.695312 Z M 1051.457031 1019.695312 " clip-rule="nonzero"/></clipPath><clipPath id="f715f1f695"><path d="M 0.589844 0.695312 L 234.457031 0.695312 L 234.457031 234.5625 L 0.589844 234.5625 Z M 0.589844 0.695312 " clip-rule="nonzero"/></clipPath><clipPath id="19e6bb420a"><path d="M 234.457031 0.695312 C 234.457031 62.289062 209.507812 122.515625 165.957031 166.066406 C 122.40625 209.617188 62.179688 234.5625 0.589844 234.5625 L 0.589844 115.253906 C 30.757812 115.253906 60.257812 103.03125 81.59375 81.699219 C 102.925781 60.367188 115.144531 30.867188 115.144531 0.695312 Z M 234.457031 0.695312 " clip-rule="nonzero"/></clipPath><clipPath id="13f9f8633f"><rect x="0" width="235" y="0" height="235"/></clipPath><clipPath id="21eea66383"><path d="M 546.207031 711.730469 L 811.40625 711.730469 L 811.40625 943.441406 L 546.207031 943.441406 Z M 546.207031 711.730469 " clip-rule="nonzero"/></clipPath><clipPath id="59be6f6cdc"><path d="M 678.613281 943.441406 L 811.019531 711.730469 L 546.207031 711.730469 Z M 678.613281 943.441406 " clip-rule="nonzero"/></clipPath><clipPath id="6cb2867cba"><path d="M 0.207031 0.730469 L 265.199219 0.730469 L 265.199219 232.441406 L 0.207031 232.441406 Z M 0.207031 0.730469 " clip-rule="nonzero"/></clipPath><clipPath id="dd2fa0ab2e"><path d="M 132.613281 232.441406 L 265.019531 0.730469 L 0.207031 0.730469 Z M 132.613281 232.441406 " clip-rule="nonzero"/></clipPath><clipPath id="a50dc09826"><rect x="0" width="266" y="0" height="233"/></clipPath><clipPath id="cf5330c051"><path d="M 650.417969 77.585938 L 934.53125 77.585938 L 934.53125 1253.992188 L 650.417969 1253.992188 Z M 650.417969 77.585938 " clip-rule="nonzero"/></clipPath><clipPath id="9f65a28acf"><path d="M 792.472656 77.585938 L 650.417969 302.585938 L 762.917969 302.585938 L 762.917969 1253.570312 L 822.03125 1253.570312 L 822.03125 302.585938 L 934.53125 302.585938 Z M 792.472656 77.585938 " clip-rule="nonzero"/></clipPath><clipPath id="7e5c22b252"><path d="M 0.417969 0.585938 L 284.53125 0.585938 L 284.53125 1176.761719 L 0.417969 1176.761719 Z M 0.417969 0.585938 " clip-rule="nonzero"/></clipPath><clipPath id="781ccf25be"><path d="M 142.472656 0.585938 L 0.417969 225.585938 L 112.917969 225.585938 L 112.917969 1176.570312 L 172.03125 1176.570312 L 172.03125 225.585938 L 284.53125 225.585938 Z M 142.472656 0.585938 " clip-rule="nonzero"/></clipPath><clipPath id="7e69461968"><rect x="0" width="285" y="0" height="1177"/></clipPath><clipPath id="e073eefe85"><path d="M 958.097656 756.710938 L 1144.828125 756.710938 L 1144.828125 943.441406 L 958.097656 943.441406 Z M 958.097656 756.710938 " clip-rule="nonzero"/></clipPath><clipPath id="3a51e274b4"><path d="M 1051.464844 756.710938 L 1081.171875 820.367188 L 1144.828125 850.078125 L 1081.171875 879.785156 L 1051.464844 943.441406 L 1021.753906 879.785156 L 958.097656 850.078125 L 1021.753906 820.367188 Z M 1051.464844 756.710938 " clip-rule="nonzero"/></clipPath><clipPath id="04b66dd3d1"><path d="M 0.0976562 0.710938 L 186.828125 0.710938 L 186.828125 187.441406 L 0.0976562 187.441406 Z M 0.0976562 0.710938 " clip-rule="nonzero"/></clipPath><clipPath id="d53d006dfb"><path d="M 93.464844 0.710938 L 123.171875 64.367188 L 186.828125 94.078125 L 123.171875 123.785156 L 93.464844 187.441406 L 63.753906 123.785156 L 0.0976562 94.078125 L 63.753906 64.367188 Z M 93.464844 0.710938 " clip-rule="nonzero"/></clipPath><clipPath id="7509d31a4a"><rect x="0" width="187" y="0" height="188"/></clipPath></defs><g clip-path="url(#832713dd09)"><g clip-path="url(#fe176b94ec)"><g transform="matrix(1, 0, 0, 1, 174, 174)"><g clip-path="url(#27e8965dde)"><g clip-path="url(#b9884c3847)"><g clip-path="url(#0fb6452f57)"><path fill="#545454" d="M 0.9375 0.9375 L 1151.0625 0.9375 L 1151.0625 1151.0625 L 0.9375 1151.0625 Z M 0.9375 0.9375 " fill-opacity="1" fill-rule="nonzero"/></g></g></g></g></g></g><g clip-path="url(#da11644947)"><g transform="matrix(1, 0, 0, 1, 361, 321)"><g clip-path="url(#509fa3c367)"><g clip-path="url(#2a0ec8e515)"><path fill="#5170ff" d="M 0.699219 0.796875 L 99.714844 0.796875 L 99.714844 450.617188 L 0.699219 450.617188 Z M 0.699219 0.796875 " fill-opacity="1" fill-rule="nonzero"/></g></g></g></g><g clip-path="url(#f403397f08)"><g clip-path="url(#44ef6e9538)"><g transform="matrix(1, 0, 0, 1, 361, 325)"><g clip-path="url(#cd71f8b7e7)"><g clip-path="url(#309bb2fca5)"><g clip-path="url(#f615b48247)"><path fill="#5ce1e6" d="M 0.699219 48.210938 L 87.550781 0.664062 L 303.558594 395.226562 L 216.710938 442.773438 Z M 0.699219 48.210938 " fill-opacity="1" fill-rule="nonzero"/></g></g></g></g></g></g><g clip-path="url(#8b02c5cd4e)"><g clip-path="url(#d1b26ca28c)"><g transform="matrix(1, 0, 0, 1, 817, 325)"><g clip-path="url(#2deef65b92)"><g clip-path="url(#e05c985327)"><g clip-path="url(#f5734ecc7a)"><path fill="#ffbd59" d="M 345.292969 0.664062 L 345.292969 345.367188 L 0.585938 345.367188 L 0.585938 0.664062 Z M 345.292969 0.664062 " fill-opacity="1" fill-rule="nonzero"/></g></g></g></g></g></g><g clip-path="url(#1fba4ea75e)"><g clip-path="url(#f50f46396f)"><g transform="matrix(1, 0, 0, 1, 817, 1019)"><g clip-path="url(#13f9f8633f)"><g clip-path="url(#f715f1f695)"><g clip-path="url(#19e6bb420a)"><path fill="#00bf63" d="M 234.457031 234.5625 L 0.589844 234.5625 L 0.589844 0.695312 L 234.457031 0.695312 Z M 234.457031 234.5625 " fill-opacity="1" fill-rule="nonzero"/></g></g></g></g></g></g><g clip-path="url(#21eea66383)"><g clip-path="url(#59be6f6cdc)"><g transform="matrix(1, 0, 0, 1, 546, 711)"><g clip-path="url(#a50dc09826)"><g clip-path="url(#6cb2867cba)"><g clip-path="url(#dd2fa0ab2e)"><path fill="#5ce1e6" d="M 0.207031 0.730469 L 265.40625 0.730469 L 265.40625 232.441406 L 0.207031 232.441406 Z M 0.207031 0.730469 " fill-opacity="1" fill-rule="nonzero"/></g></g></g></g></g></g><g clip-path="url(#cf5330c051)"><g clip-path="url(#9f65a28acf)"><g transform="matrix(1, 0, 0, 1, 650, 77)"><g clip-path="url(#7e69461968)"><g clip-path="url(#7e5c22b252)"><g clip-path="url(#781ccf25be)"><path fill="#c1ff72" d="M 0.417969 0.585938 L 284.53125 0.585938 L 284.53125 1176.992188 L 0.417969 1176.992188 Z M 0.417969 0.585938 " fill-opacity="1" fill-rule="nonzero"/></g></g></g></g></g></g><g clip-path="url(#e073eefe85)"><g clip-path="url(#3a51e274b4)"><g transform="matrix(1, 0, 0, 1, 958, 756)"><g clip-path="url(#7509d31a4a)"><g clip-path="url(#04b66dd3d1)"><g clip-path="url(#d53d006dfb)"><path fill="#ffde59" d="M 0.0976562 0.710938 L 186.828125 0.710938 L 186.828125 187.441406 L 0.0976562 187.441406 Z M 0.0976562 0.710938 " fill-opacity="1" fill-rule="nonzero"/></g></g></g></g></g></g></svg>